<svg xmlns="http://www.w3.org/2000/svg" width="152" height="152" fill="none"><path fill="#252223" d="m67.145 61.216-.012.172c-.016.224-.034.458-.055.71l-.006.06a59.226 59.226 0 0 1-.086.908l-.006.06c-.029.278-.06.564-.095.865l-.018.146a63.928 63.928 0 0 1-.317 2.281l-.007.044a60.8 60.8 0 0 1-.44 2.464l-.001.002-.024.118a62.316 62.316 0 0 1-.556 2.488l-.04.158a28.98 28.98 0 0 0-.08.316l-.106.415-.007.006c-.695 2.638-1.633 5.444-2.915 8.205-4.548 9.799-11.463 14.973-21.07 15.78l-.012.013a7.04 7.04 0 0 1-.198.012l-.163.01a31.509 31.509 0 0 1-2.348.09 32.284 32.284 0 0 1-1.945-.061 29.096 29.096 0 0 1-3.646-.465 23.402 23.402 0 0 1-1.828-.432l-.174-.051a10.122 10.122 0 0 0-.115-.034l-.186-.055a14.98 14.98 0 0 1-.386-.116l.012-.012a22.036 22.036 0 0 1-7.884-4.468l-.01.011c-.09-.08-.179-.161-.268-.244l-.111-.103a1375289357187.108 1375289357187.108 0 0 1-.28-.256 25.583 25.583 0 0 1-1.337-1.367 26.835 26.835 0 0 1-1.178-1.386 29.315 29.315 0 0 1-1.131-1.516l-.077-.115c-.293-.425-.58-.862-.86-1.312-.022-.037-.046-.074-.07-.111-.037-.06-.075-.118-.112-.18l-.03-.047.002-.001a39.376 39.376 0 0 1-1.945-3.627c-1.042-2.208-1.876-4.479-2.548-6.69l-.031-.105a58.509 58.509 0 0 1-.477-1.669l-.03-.112a48.736 48.736 0 0 1-.42-1.655l-.04-.17-.048-.196a64.867 64.867 0 0 1-.364-1.659l-.003-.013c-.076-.37-.147-.734-.213-1.092l-.013-.07a65.41 65.41 0 0 1-.188-1.058v-.005a55.982 55.982 0 0 1-.666-5.482c1.483-.981 4.659-2.202 9.34-3.192h.001c.918-.194 1.893-.38 2.926-.553l.014-.002c.5-.083 1.014-.164 1.54-.24l.137-.02a85.678 85.678 0 0 1 1.59-.217l.01-.001a89.902 89.902 0 0 1 1.775-.204l.127-.014a98.713 98.713 0 0 1 3.471-.299l.329-.022c.605-.04 1.218-.075 1.845-.105h.002c1.746-.085 3.577-.13 5.493-.13 2.396 0 4.66.071 6.789.2h.003c.505.03 1.002.064 1.492.1l.154.013c.42.032.834.066 1.243.102l.2.018.103.01c.364.034.724.069 1.08.105l.073.008.217.023c.384.04.763.084 1.136.128l.15.018a80.03 80.03 0 0 1 4.957.753h.003c4.356.808 7.595 1.83 9.594 2.758.284.132.545.263.78.39l.02.012a8.196 8.196 0 0 1 .606.36c-.01.185-.023.39-.038.602ZM141.978 61.221a2.227 2.227 0 0 0-.012.162 64.62 64.62 0 0 1-.057.718l-.003.045c-.021.236-.045.487-.071.745l-.022.235-.014.128a60.26 60.26 0 0 1-.082.737l-.018.146a74.57 74.57 0 0 1-.103.81l-.041.302a45.515 45.515 0 0 1-.156 1.065l-.004.028-.018.113c-.047.287-.094.579-.145.877a12.77 12.77 0 0 0-.034.19l-.028.158a66.917 66.917 0 0 1-.26 1.366 56.695 56.695 0 0 1-.279 1.311c-.087.388-.18.78-.277 1.177-.014.06-.03.119-.046.179a51.552 51.552 0 0 1-.18.71l-.006.006c-.695 2.638-1.635 5.444-2.915 8.205-4.549 9.799-11.465 14.973-21.071 15.78l-.012.013a7.208 7.208 0 0 1-.198.012 7.994 7.994 0 0 0-.162.01 31.448 31.448 0 0 1-2.349.09c-.62 0-1.229-.021-1.83-.055l-.117-.006a29.187 29.187 0 0 1-2.095-.207 25.933 25.933 0 0 1-1.548-.258c-.114-.022-.227-.046-.341-.07a23.634 23.634 0 0 1-1.777-.447 8.243 8.243 0 0 0-.104-.03l-.093-.028a14.421 14.421 0 0 1-.375-.113l.012-.012a22.036 22.036 0 0 1-7.883-4.468l-.01.011a12.872 12.872 0 0 1-.38-.347 27.261 27.261 0 0 0-.077-.07 24.788 24.788 0 0 1-1.54-1.552 26.72 26.72 0 0 1-1.172-1.38l-.076-.098a29.63 29.63 0 0 1-1.057-1.42c-.027-.04-.054-.081-.082-.12a34.172 34.172 0 0 1-.926-1.42c-.039-.06-.077-.12-.114-.183l-.03-.047.002-.001a39.305 39.305 0 0 1-1.946-3.627c-1.042-2.208-1.876-4.479-2.548-6.692a5.043 5.043 0 0 1-.03-.1l-.03-.099a59.102 59.102 0 0 1-.932-3.48v-.003l-.055-.228a62.837 62.837 0 0 1-.364-1.657l-.001-.007a57.98 57.98 0 0 1-.215-1.097l-.012-.067c-.067-.36-.13-.716-.188-1.062v-.002a55.92 55.92 0 0 1-.665-5.482c1.483-.981 4.658-2.202 9.338-3.192.92-.194 1.895-.38 2.928-.553l.014-.002a77.081 77.081 0 0 1 1.54-.24l.138-.02a86.511 86.511 0 0 1 1.589-.217l.01-.001c.536-.068 1.089-.13 1.649-.191.084-.01.17-.018.254-.026a98.15 98.15 0 0 1 3.626-.31l.174-.012c.603-.04 1.218-.075 1.844-.105h.003c1.746-.085 3.577-.13 5.492-.13 2.396 0 4.66.071 6.789.2h.003c.505.03 1.002.064 1.493.1l.152.013a96.998 96.998 0 0 1 2.627.235l.152.016.139.015c.385.04.762.084 1.135.128l.151.018c1.784.216 3.438.471 4.957.753h.003c4.356.808 7.594 1.83 9.592 2.758.285.132.546.263.781.39l.021.012c.108.06.213.117.31.175.106.063.204.125.296.186l-.007.119a23.923 23.923 0 0 0-.031.487Z"/><path fill="#FF6B00" fill-rule="evenodd" d="M141.978 61.221a2.227 2.227 0 0 0-.012.162 64.62 64.62 0 0 1-.057.718l-.003.045c-.021.236-.045.487-.071.745l-.022.235-.014.128a60.26 60.26 0 0 1-.082.737l-.018.146a74.57 74.57 0 0 1-.103.81l-.041.302a45.515 45.515 0 0 1-.156 1.065l-.004.028-.018.113c-.047.287-.094.579-.145.877a12.77 12.77 0 0 0-.034.19l-.028.158a66.917 66.917 0 0 1-.26 1.366 56.695 56.695 0 0 1-.279 1.311c-.087.388-.18.78-.277 1.177-.014.06-.03.119-.046.179a51.552 51.552 0 0 1-.18.71l-.006.006c-.695 2.638-1.635 5.444-2.915 8.205-4.549 9.799-11.465 14.973-21.071 15.78l-.012.013a7.208 7.208 0 0 1-.198.012 7.994 7.994 0 0 0-.162.01 31.448 31.448 0 0 1-2.349.09c-.62 0-1.229-.021-1.83-.055l-.117-.006a29.187 29.187 0 0 1-2.095-.207 25.933 25.933 0 0 1-1.548-.258c-.114-.022-.227-.046-.341-.07a23.634 23.634 0 0 1-1.777-.447 8.243 8.243 0 0 0-.104-.03l-.093-.028a14.421 14.421 0 0 1-.375-.113l.012-.012a22.036 22.036 0 0 1-7.883-4.468l-.01.011a12.872 12.872 0 0 1-.38-.347l-.077-.07a24.788 24.788 0 0 1-1.54-1.552 26.72 26.72 0 0 1-1.172-1.38l-.076-.098a29.63 29.63 0 0 1-1.057-1.42c-.027-.04-.054-.081-.082-.12a34.172 34.172 0 0 1-.926-1.42c-.039-.06-.077-.12-.114-.183l-.03-.047.002-.001a39.305 39.305 0 0 1-1.946-3.627c-1.042-2.208-1.876-4.479-2.548-6.692a5.043 5.043 0 0 1-.03-.1l-.03-.099a59.102 59.102 0 0 1-.932-3.48v-.003l-.055-.228a62.837 62.837 0 0 1-.364-1.657l-.001-.007a57.98 57.98 0 0 1-.215-1.097l-.012-.067c-.067-.36-.13-.716-.188-1.062v-.002a55.92 55.92 0 0 1-.665-5.482c1.483-.981 4.658-2.202 9.338-3.192.92-.194 1.895-.38 2.928-.553l.014-.002a77.081 77.081 0 0 1 1.54-.24l.138-.02a86.511 86.511 0 0 1 1.589-.217l.01-.001c.536-.068 1.089-.13 1.649-.191.084-.01.17-.018.254-.026a98.15 98.15 0 0 1 3.626-.31l.174-.012c.603-.04 1.218-.075 1.844-.105h.003c1.746-.085 3.577-.13 5.492-.13 2.396 0 4.66.071 6.789.2h.003c.505.03 1.002.064 1.493.1l.152.013c.421.032.836.066 1.244.102l.174.016.129.012c.364.034.725.069 1.08.105l.152.016.139.015c.385.04.762.084 1.135.128l.151.018c1.784.216 3.438.471 4.957.753h.003c4.356.808 7.594 1.83 9.592 2.758.285.132.546.263.781.39l.021.012c.108.06.213.117.31.175.106.063.204.125.296.186l-.007.119-.011.172-.02.315Zm-74.833-.005-.012.172c-.016.224-.034.458-.055.71l-.006.06a59.226 59.226 0 0 1-.086.908l-.006.06c-.029.278-.06.564-.095.865l-.018.146c-.031.261-.066.532-.103.81l-.023.175-.018.127a61.301 61.301 0 0 1-.173 1.17l-.007.043a60.8 60.8 0 0 1-.44 2.464l-.001.002-.024.118a62.316 62.316 0 0 1-.556 2.488l-.04.158-.038.147-.042.17-.106.414-.007.006c-.695 2.638-1.633 5.444-2.915 8.205-4.548 9.799-11.463 14.973-21.07 15.78l-.012.013a7.04 7.04 0 0 1-.198.012l-.163.01a31.509 31.509 0 0 1-2.348.09 32.284 32.284 0 0 1-1.945-.061 29.096 29.096 0 0 1-3.646-.465 23.402 23.402 0 0 1-1.828-.432l-.174-.051a10.122 10.122 0 0 0-.115-.034l-.186-.055a14.98 14.98 0 0 1-.386-.116l.012-.012a22.036 22.036 0 0 1-7.884-4.468l-.01.011c-.09-.08-.179-.161-.268-.244l-.111-.103-.074-.067a12.05 12.05 0 0 1-.205-.189 25.583 25.583 0 0 1-1.338-1.367 26.835 26.835 0 0 1-1.178-1.386l-.07-.09a29.315 29.315 0 0 1-1.06-1.426l-.078-.115c-.293-.425-.58-.862-.86-1.312-.022-.037-.046-.074-.07-.111-.037-.06-.075-.118-.112-.18l-.03-.047.002-.001a39.376 39.376 0 0 1-1.945-3.627c-1.042-2.208-1.876-4.479-2.548-6.69l-.031-.105a58.509 58.509 0 0 1-.477-1.669l-.03-.112a48.736 48.736 0 0 1-.42-1.655l-.04-.17-.048-.196a64.867 64.867 0 0 1-.364-1.659l-.003-.013c-.076-.37-.147-.734-.213-1.092l-.013-.07a65.41 65.41 0 0 1-.188-1.058v-.005a55.982 55.982 0 0 1-.666-5.482c1.483-.981 4.659-2.202 9.34-3.192h.001c.918-.194 1.893-.38 2.926-.553l.014-.002c.5-.083 1.014-.164 1.54-.24l.137-.02a85.678 85.678 0 0 1 1.59-.217l.01-.001c.537-.068 1.089-.13 1.65-.191l.125-.013.127-.014a98.713 98.713 0 0 1 3.471-.299l.329-.022c.605-.04 1.218-.075 1.845-.105h.002c1.746-.085 3.577-.13 5.493-.13 2.396 0 4.66.071 6.789.2h.003c.505.03 1.002.064 1.492.1l.154.013c.42.032.834.066 1.243.102l.2.018.103.01c.364.034.724.069 1.08.105l.073.008.217.023c.384.04.763.084 1.136.128l.15.018a80.03 80.03 0 0 1 4.957.753h.003c4.356.808 7.595 1.83 9.594 2.758.284.132.545.263.78.39l.02.012a8.196 8.196 0 0 1 .606.36c-.01.185-.023.39-.038.602Zm76.552-5.351c-5.419-3.378-16.941-5.71-30.282-5.71-13.03 0-24.32 2.227-29.889 5.478-2.66-1.79-5.98-2.493-9.187-2.022-1.94.285-3.809 1.108-5.408 2.296-5.392-3.4-16.952-5.751-30.348-5.751-13.495 0-25.124 2.386-30.462 5.828C6.37 57.288 5.803 58.35 5 60.42 5.073 66.575 8.58 102 38.583 102c29.702 0 33.324-33.318 33.57-40.944l.074-.065a10.738 10.738 0 0 1 .144-.127l.87-.563c.161-.09.323-.177.488-.26l.02-.009c.115.004.421-.126.651-.224.112-.048.206-.088.25-.1.313-.09.628-.153.946-.213.1-.001.203-.008.305-.016a5.27 5.27 0 0 1 .274-.015c.05 0 .724.015 1.017.033l.023.005.106.02a10.13 10.13 0 0 1 1.568.43l.085.034.36.176c.111.058.218.125.325.191.058.036.115.072.173.106.089 6.269 3.645 41.541 33.583 41.541C144.38 102 147 65.783 147 60.222l-.003-.04c-.839-1.898-1.557-2.868-3.3-4.317Z" clip-rule="evenodd"/><path fill="#fff" d="M61.997 63.678c-.31-.887-.773-1.425-1.343-1.555-.859-.198-1.87.518-2.842 2.015-.959 1.476-1.775 3.543-2.298 5.822l-.017.08c-1.077 4.761-.54 8.807 1.221 9.211.094.022.19.033.287.033.794 0 1.69-.715 2.555-2.049.96-1.476 1.775-3.543 2.298-5.819.695-3.023.748-5.988.139-7.738ZM55.905 81.8a2.128 2.128 0 0 0-1.315-.46 2.158 2.158 0 0 0-2.155 2.156c0 .473.16.928.46 1.315a2.14 2.14 0 0 0 1.695.839 2.157 2.157 0 0 0 2.154-2.154 2.14 2.14 0 0 0-.84-1.697ZM98.341 77.774c.638-1.74.596-4.735-.112-7.815a22.297 22.297 0 0 0-1.07-3.41c-1.215-2.978-2.817-4.717-4.07-4.426-.86.197-1.456 1.282-1.678 3.055-.218 1.747-.05 3.963.474 6.239l.035.143.027.106c1.055 4.376 3.097 7.607 4.79 7.607l.093-.003.051-.003.144-.016c.554-.127 1.009-.638 1.316-1.477ZM99.153 81.34a2.157 2.157 0 0 0-2.154 2.156c0 1.188.966 2.154 2.154 2.154a2.157 2.157 0 0 0 2.155-2.154 2.158 2.158 0 0 0-2.155-2.155Z"/></svg>