<svg xmlns="http://www.w3.org/2000/svg" width="152" height="152" fill="none"><g clip-path="url(#a)"><path fill="#3B1E3B" d="m113.518 58.757-4.869-5.312a.447.447 0 0 0-.325-.16 165.022 165.022 0 0 0-7.255-.125h.001c-1.3.004-2.483.027-3.65.05-.623.013-1.24.027-1.868.042.014-2.51.02-5.11.02-7.765 0-13.044-.162-27.451-.419-39.513a.447.447 0 0 0-.116-.29L90.177.38a.448.448 0 0 0-.296-.164h-.002c-.006 0-.012 0-.018-.002h-.011A173.65 173.65 0 0 0 81.239 0a172.51 172.51 0 0 0-42.584 5.323.444.444 0 0 0-.333.468c1.915 22.262 3.065 53.305 3.443 75.665a.443.443 0 0 0 .132.324l4.867 5.31a.445.445 0 0 0 .375.14c6.682-.731 14.173-1.03 21.227-1.58-.65 15.197-1.599 30.99-2.335 46.369-.13 2.682-.254 5.355-.365 8.006v.008c-.088 2.068-.168 4.124-.243 6.169V146.215a.43.43 0 0 0 .002.069l.003.018.004.021.005.022.002.008a.443.443 0 0 0 .112.19l4.87 5.313a.444.444 0 0 0 .721-.097c15.49-30.061 30.589-60.858 42.463-92.547a.442.442 0 0 0-.087-.455Z"/><path fill="#FAD84E" d="M66.553 140.068c-.06 1.4-.115 2.796-.169 4.186 15.069-29.306 29.704-59.292 41.291-90.105a165.21 165.21 0 0 0-5.652-.105l-.948.004h-.001c-1.292.005-2.47.026-3.636.048l-.137.003c-1.984.045-3.947.101-6.39.101h-.733a.443.443 0 0 1-.442-.45c.046-4.217.068-8.797.068-13.56 0-12.897-.157-27.132-.41-39.11l-1.592-.069c-.519-.018-1.038-.036-1.557-.05a171.625 171.625 0 0 0-47.006 5.13c1.886 22.115 3.022 52.666 3.405 74.88.939-.099 1.89-.19 2.854-.274l.04-.003c7.687-.676 16.078-.956 23.475-1.77a.447.447 0 0 1 .492.457c-.623 16.796-1.708 34.5-2.54 51.704a1599.69 1599.69 0 0 0-.411 8.973v.01Z"/><path fill="#F9A632" d="M108.468 54.562a547.779 547.779 0 0 1-6.45 16.336 615.645 615.645 0 0 1-3.435 8.164 697.063 697.063 0 0 1-5.46 12.396c-.214.475-.429.948-.644 1.422a826.631 826.631 0 0 1-5.601 12.08 767.376 767.376 0 0 1-2.36 4.953c-.208.434-.415.867-.624 1.299a1056.01 1056.01 0 0 1-2.96 6.097 1257.541 1257.541 0 0 1-7.486 15.044l-.584 1.156a1909.91 1909.91 0 0 1-1.972 3.885l-.564 1.108c-.68 1.333-1.362 2.665-2.044 3.995l-.457.891c-.474.925-.95 1.848-1.424 2.771l4.242 4.628.661-1.285.615-1.197a2298.887 2298.887 0 0 0 2.648-5.174c.718-1.409 1.434-2.818 2.149-4.229l.512-1.013c.361-.713.721-1.428 1.081-2.142l.6-1.192c1.892-3.766 3.77-7.543 5.63-11.333l.591-1.209a998.491 998.491 0 0 0 2.405-4.947l.612-1.271a882.564 882.564 0 0 0 1.83-3.821l.45-.951a981.353 981.353 0 0 0 1.535-3.247l.674-1.441a840.872 840.872 0 0 0 3.14-6.792c.21-.46.419-.917.627-1.377a718.369 718.369 0 0 0 5.654-12.752c.224-.518.446-1.037.669-1.556a663.13 663.13 0 0 0 2.804-6.644l.482-1.164a628.073 628.073 0 0 0 2.997-7.4 545.522 545.522 0 0 0 3.668-9.495l-4.211-4.593ZM68.317 84.764l.087-.007c.068-1.64.134-3.273.195-4.896a170.596 170.596 0 0 1-4.14.386c-1.694.138-3.416.262-5.15.377l-1.216.08c-1.235.08-2.474.158-3.71.237L53 81.03a433.5 433.5 0 0 0-4.823.337 207.218 207.218 0 0 0-2.563.21c-.837.072-1.665.152-2.484.236l4.135 4.51a196.089 196.089 0 0 1 4.272-.402 317.114 317.114 0 0 1 5.612-.409c1.164-.076 2.333-.15 3.502-.225l1.283-.082c1.628-.103 3.251-.21 4.854-.326.512-.037 1.021-.076 1.528-.115ZM90.446 9.999c.041 2.58.077 5.217.109 7.88l.017 1.51c.015 1.289.027 2.584.04 3.88l.012 1.428c.017 2.005.03 4.01.041 6.006l.007 1.37c.012 2.554.019 5.085.02 7.57V40.895a1376.411 1376.411 0 0 1-.017 6.457c-.01 2.048-.026 4.04-.046 5.959h.283a179.4 179.4 0 0 0 3.753-.041 1070.902 1070.902 0 0 0 .017-4.466c.002-1.095.003-2.201.003-3.318V43.54l-.003-1.282a1774.076 1774.076 0 0 0-.087-14.64l-.016-1.536c-.012-1.251-.027-2.5-.042-3.74a1915.787 1915.787 0 0 0-.136-9.282l-.024-1.382c-.033-1.883-.069-3.727-.107-5.519l-3.971-4.333A1793.548 1793.548 0 0 1 90.446 10Z"/><path fill="#F7911F" d="M46.693 81.487c1.05 1.574 2.209 3.085 3.408 4.56.477-.044.956-.085 1.437-.125-1.064-1.557-2.171-3.094-3.36-4.554-.497.038-.992.078-1.485.119ZM53.001 81.03c.782 1.56 1.637 3.1 2.564 4.59.527-.037 1.056-.073 1.585-.108a236.687 236.687 0 0 0-2.767-4.571l-1.382.09ZM58.093 80.704c.787 1.558 1.627 3.108 2.558 4.584l1.284-.082c-.83-1.55-1.73-3.07-2.626-4.581l-1.216.08ZM64.46 80.247a64.6 64.6 0 0 0 2.33 4.632c.51-.037 1.02-.075 1.527-.115-.82-1.547-1.652-3.087-2.467-4.636-.461.041-.925.08-1.39.12ZM90.674 47.354a92.332 92.332 0 0 0 4.003 3.081l.005-1.63a97.056 97.056 0 0 0-4.001-3.01 980.26 980.26 0 0 1-.007 1.56ZM90.692 40.189l-.001.706c1.32.897 2.647 1.788 3.993 2.645l-.002-1.282a182.354 182.354 0 0 0-3.991-2.615v.546ZM90.672 32.074a61.83 61.83 0 0 0 3.979 2.57l-.01-1.466c-1.325-.824-2.657-1.638-3.976-2.474l.007 1.37ZM90.624 24.697a50.326 50.326 0 0 0 3.971 2.922l-.016-1.536a148.542 148.542 0 0 1-3.968-2.813l.013 1.427ZM90.572 19.389a37.66 37.66 0 0 0 3.965 2.954l-.02-1.556a186.239 186.239 0 0 1-3.963-2.907l.018 1.509ZM90.445 9.998c1.31 1.033 2.62 2.066 3.956 3.061l-.024-1.381c-1.305-1.04-2.633-2.05-3.954-3.071l.022 1.391ZM106.617 59.408c1.116 2.27 2.193 4.581 3.339 6.847l.702-1.803c-1.102-2.22-2.296-4.398-3.456-6.559l-.585 1.515ZM105.064 63.37c1.025 2.351 2.088 4.712 3.262 6.998.229-.572.458-1.145.685-1.718-1.11-2.241-2.27-4.463-3.388-6.695l-.559 1.415ZM102.018 70.898a228.38 228.38 0 0 1 3.514 6.316l.482-1.164a67.35 67.35 0 0 0-3.497-6.365c-.165.404-.331.81-.499 1.213ZM92.48 92.88c1.031 2.253 2.102 4.497 3.298 6.663l.627-1.377c-1.062-2.25-2.189-4.473-3.282-6.708-.214.475-.429.948-.644 1.422ZM98.583 79.062c1.104 2.149 2.249 4.283 3.476 6.352.224-.518.446-1.037.669-1.556-1.106-2.117-2.299-4.2-3.52-6.26-.207.488-.415.976-.625 1.464ZM94.928 87.429c1.079 2.194 2.196 4.37 3.392 6.491l.69-1.547a201.44 201.44 0 0 0-3.416-6.447c-.22.501-.443 1.002-.665 1.503ZM88.7 101.085c1.083 2.232 2.16 4.47 3.263 6.691l.675-1.441a100.163 100.163 0 0 0-3.328-6.561c-.202.437-.406.874-.61 1.311ZM86.326 106.126a537.364 537.364 0 0 0 3.652 5.848l.451-.951a458.012 458.012 0 0 0-3.551-6.063l-.552 1.166ZM83.894 111.213a131.776 131.776 0 0 1 3.643 5.853l.612-1.271a48.132 48.132 0 0 0-3.631-5.882l-.624 1.3ZM80.933 117.309c1.15 2.005 2.336 3.988 3.607 5.913l.592-1.209c-1.194-1.971-2.416-3.926-3.616-5.896l-.583 1.192ZM74.424 130.419a158.77 158.77 0 0 0 3.887 5.329l.6-1.192a179.227 179.227 0 0 0-3.85-5.406l-.637 1.269ZM72.864 133.509a160.783 160.783 0 0 0 3.853 5.393c.171-.338.343-.675.513-1.013a168.325 168.325 0 0 0-3.782-5.535l-.584 1.155ZM70.327 138.502a90.303 90.303 0 0 0 3.526 6.032l.716-1.403a225.22 225.22 0 0 0-3.677-5.737l-.565 1.108ZM67.827 143.388c1.052 2.08 2.172 4.168 3.48 6.113l.614-1.196c-1.244-1.914-2.505-3.817-3.637-5.808l-.457.891Z"/><path fill="#FCCE2F" d="M66.553 140.068c-.06 1.4-.115 2.796-.169 4.186 15.069-29.306 29.704-59.292 41.291-90.105a161.23 161.23 0 0 0-6.6-.1h-.001a220.369 220.369 0 0 0-3.773.05 425.526 425.526 0 0 1-12.534 37.289c.095-.22.189-.442.282-.662 3.019-7.126 6.004-14.323 9.455-21.253.454-.912 1.948-.263 1.635.69-2.42 7.358-5.36 14.577-8.227 21.77-2.78 6.975-5.301 14.429-9.026 20.959-.675 1.182-2.512.373-2.168-.915a65.55 65.55 0 0 1 1.278-4.179 424.977 424.977 0 0 1-11.031 23.287 1599.69 1599.69 0 0 0-.411 8.973v.01ZM43.862 22.127c.102-1.15 1.687-1.149 1.789 0 .234 2.644.096 5.198-.166 7.827a.729.729 0 0 1-1.457 0c-.262-2.63-.4-5.182-.166-7.827Zm1.15 31.797c-.088-3.14-.06-6.278.092-9.435.052-1.095 1.598-1.073 1.685 0l.018.22C50.553 29.98 58.409 16.485 70.86 8.004c-2.748.198-5.493.427-8.224.775-5.86.745-11.664 1.912-17.45 3.086-1.063.215-1.435-1.226-.442-1.606 9.435-3.602 20.327-5.548 30.602-4.98a51.176 51.176 0 0 1 5.274-2.46A49.607 49.607 0 0 1 86.245.96a171.625 171.625 0 0 0-47.006 5.13c1.886 22.115 3.022 52.667 3.405 74.881.939-.1 1.89-.19 2.854-.274a81.823 81.823 0 0 1-.742-5.047 87.155 87.155 0 0 1 .256-21.726Z"/><path fill="#F8EEEA" d="M44.744 10.26c-.993.378-.621 1.82.442 1.604 5.786-1.173 11.59-2.34 17.45-3.086 2.73-.347 5.476-.577 8.224-.775 2.99-.215 5.986-.393 8.97-.645 1.088-.091 1.048-1.525 0-1.663a59.097 59.097 0 0 0-4.484-.416c-10.275-.568-21.167 1.377-30.602 4.98ZM45.104 44.489c-.152 3.157-.18 6.295-.092 9.435.06 2.126.171 4.252.333 6.386.194 2.56.4 5.124.727 7.67.282 2.204.281 4.894 1.41 6.838.393.677 1.496.556 1.692-.221.549-2.183-.131-4.822-.363-7.043-.266-2.556-.557-5.109-.777-7.67-.435-5.056-.82-10.118-1.227-15.175a99.33 99.33 0 0 0-.018-.22c-.087-1.074-1.633-1.095-1.685 0ZM76.718 111.977c-.344 1.288 1.493 2.097 2.168.914 3.725-6.529 6.246-13.983 9.026-20.958 2.867-7.193 5.806-14.413 8.227-21.77.313-.953-1.181-1.602-1.635-.69-3.45 6.93-6.436 14.127-9.455 21.252l-.282.663c-2.299 5.376-4.87 10.833-6.77 16.41a65.55 65.55 0 0 0-1.279 4.179ZM45.485 29.954c.262-2.63.4-5.184.166-7.827-.102-1.15-1.687-1.151-1.79 0-.233 2.645-.095 5.196.167 7.827a.729.729 0 0 0 1.457 0Z"/></g><defs><clipPath id="a"><path fill="#fff" d="M38.32 0h75.313v152H38.32z"/></clipPath></defs></svg>