<svg xmlns="http://www.w3.org/2000/svg" width="152" height="152" fill="none"><path fill="#6E3132" d="M89.49 90.95c.58-3.66.831-7.351.719-11.057-.028-.965-1.532-1.001-1.503-.032.108 3.564-.1 7.137-.657 10.66-.064.404.082.804.506.934.348.11.872-.103.935-.505Z"/><mask id="a" fill="#fff"><path d="M50.165 16.445C40.383 18.82 26.397 26.65 15.79 33.216A344.297 344.297 0 0 0 1.14 42.801l-.04.029-.133.092-.038.026-.036.026-.065.045-.052.036-.032.023-.016.011-.01.008-.007.005-.009.005.279.533.063.12.116.223.01.022.18.34.098.188.117.22.057.11c.044.08.089.166.135.255l.131.247.095.18.002.003.249.468c.047.091.096.183.146.276l.06.113.143.27.458.857.146.272.034.063.17.317.016.03c.124.233.253.472.385.716l.022.042.489.907.086.157.061.114c.056.106.114.212.172.319l.05.093.047.086.203.375.01.017.06.11.18.334.31.566.182.334c.375.685.765 1.398 1.17 2.132l.022.042c4.915 8.915 11.905 21.074 17.645 29.043l.007.011.313.432.002.003c.525.722 1.04 1.406 1.54 2.047l.016.02.132.169.017.02c.046.06.092.12.139.178l.002.003.126.157.041.051.117.147.016.02c.438.54.863 1.046 1.274 1.512l.033.038.105.116.028.031.105.118.033.036.099.108.039.042.095.104.034.036.097.103.036.037.093.099.04.04.085.09.045.046.084.084.042.043.099.1.023.023.11.107.016.016.112.11.013.012c.126.12.248.235.37.345l.009.006.108.097.03.027.087.076.037.03.078.067.04.034.077.063.039.032.072.06.045.034.068.053.043.034.07.052.041.03.067.05.044.032.067.05.04.025.065.047.043.028.06.04.046.029.066.043.036.022c.068.042.137.081.203.119l.023.011.077.043.034.017.064.031.038.02.059.028.039.016.057.025.038.015.055.023.04.014.053.02.039.014.05.016.04.013.05.014.039.01.047.011.041.01.048.009.035.006.051.007.035.004.048.006.034.002.05.003h.031l.054.001h.025l.078-.007.098-.01.013-.002.1-.015.013-.003.104-.02.017-.002.107-.023.016-.004.115-.028.013-.003.123-.034.005-.002.131-.038.005-.001.129-.041.022-.008.127-.042.024-.008.133-.047.021-.008.136-.05.028-.011.142-.055.01-.004c.106-.042.213-.086.324-.132l.013-.005.16-.07.022-.008.157-.07.029-.013.162-.073.026-.013.163-.075.035-.016.154-.074.033-.016.163-.078.028-.014.188-.093.011-.005.19-.096.028-.014.192-.098.011-.006.204-.106.02-.01c.138-.072.279-.147.42-.223l.013-.007.214-.116.015-.007.22-.122.01-.005.225-.124.013-.007.298-.168.095-.054.076-.043.127-.072.079-.046.119-.069.102-.058.099-.058.103-.06.094-.054.13-.077.043-.025c7.996-4.707 20.918-14.202 30.674-22.204h-.002a239.621 239.621 0 0 0 3.31-2.759c-.066-.178 6.395 18.068 4.595 26.151 0 0-24.04.184-26.188 2.898-2.148 2.713 44.821 41.462 49.757 42.772 4.935 1.31 42.791-39.613 43.829-41.908 1.038-2.295-18.802-3.245-18.802-3.245s-2.767-36.66-10.315-48.492C108.8 30.285 77.428 9.025 50.165 16.445Z"/></mask><path fill="#00B3E1" d="M50.165 16.445C40.383 18.82 26.397 26.65 15.79 33.216A344.297 344.297 0 0 0 1.14 42.801l-.04.029-.133.092-.038.026-.036.026-.065.045-.052.036-.032.023-.016.011-.01.008-.007.005-.009.005.279.533.063.12.116.223.01.022.18.34.098.188.117.22.057.11c.044.08.089.166.135.255l.131.247.095.18.002.003.249.468c.047.091.096.183.146.276l.06.113.143.27.458.857.146.272.034.063.17.317.016.03c.124.233.253.472.385.716l.022.042.489.907.086.157.061.114c.056.106.114.212.172.319l.05.093.047.086.203.375.01.017.06.11.18.334.31.566.182.334c.375.685.765 1.398 1.17 2.132l.022.042c4.915 8.915 11.905 21.074 17.645 29.043l.007.011.313.432.002.003c.525.722 1.04 1.406 1.54 2.047l.016.02.132.169.017.02c.046.06.092.12.139.178l.002.003.126.157.041.051.117.147.016.02c.438.54.863 1.046 1.274 1.512l.033.038.105.116.028.031.105.118.033.036.099.108.039.042.095.104.034.036.097.103.036.037.093.099.04.04.085.09.045.046.084.084.042.043.099.1.023.023.11.107.016.016.112.11.013.012c.126.12.248.235.37.345l.009.006.108.097.03.027.087.076.037.03.078.067.04.034.077.063.039.032.072.06.045.034.068.053.043.034.07.052.041.03.067.05.044.032.067.05.04.025.065.047.043.028.06.04.046.029.066.043.036.022c.068.042.137.081.203.119l.023.011.077.043.034.017.064.031.038.02.059.028.039.016.057.025.038.015.055.023.04.014.053.02.039.014.05.016.04.013.05.014.039.01.047.011.041.01.048.009.035.006.051.007.035.004.048.006.034.002.05.003h.031l.054.001h.025l.078-.007.098-.01.013-.002.1-.015.013-.003.104-.02.017-.002.107-.023.016-.004.115-.028.013-.003.123-.034.005-.002.131-.038.005-.001.129-.041.022-.008.127-.042.024-.008.133-.047.021-.008.136-.05.028-.011.142-.055.01-.004c.106-.042.213-.086.324-.132l.013-.005.16-.07.022-.008.157-.07.029-.013.162-.073.026-.013.163-.075.035-.016.154-.074.033-.016.163-.078.028-.014.188-.093.011-.005.19-.096.028-.014.192-.098.011-.006.204-.106.02-.01c.138-.072.279-.147.42-.223l.013-.007.214-.116.015-.007.22-.122.01-.005.225-.124.013-.007.298-.168.095-.054.076-.043.127-.072.079-.046.119-.069.102-.058.099-.058.103-.06.094-.054.13-.077.043-.025c7.996-4.707 20.918-14.202 30.674-22.204h-.002a239.621 239.621 0 0 0 3.31-2.759c-.066-.178 6.395 18.068 4.595 26.151 0 0-24.04.184-26.188 2.898-2.148 2.713 44.821 41.462 49.757 42.772 4.935 1.31 42.791-39.613 43.829-41.908 1.038-2.295-18.802-3.245-18.802-3.245s-2.767-36.66-10.315-48.492C108.8 30.285 77.428 9.025 50.165 16.445Z"/><path fill="#0093B9" d="m15.643 32.738.07-.021.293.956-.07.021-.293-.956Zm34.522-16.293.263.965-.013.003-.014.003-.236-.971ZM15.79 33.216l.526.85-.526-.85ZM1.14 42.801l-.574-.819.003-.002.571.821Zm-.04.029.574.818-.002.002-.573-.82Zm-.133.092.573.82-.003.002-.57-.822Zm-.038.026.57.822H1.5l-.569-.822Zm-.036.026-.574-.82.005-.003.569.823Zm-.065.045L.255 42.2l.574.819Zm-.052.036-.582-.813.008-.005.574.818Zm-.032.023.582.814-.007.005-.007.004-.568-.823Zm-.016.011-.585-.81.008-.007.008-.005.569.822Zm-.01.008.584.811-.02.014-.02.013-.545-.838Zm-.007.005-.557-.832.01-.007.547.839Zm-.009.005-.888.46-.41-.794.742-.497.556.83Zm.279.533-.885.466-.001-.002.886-.464Zm.063.12.885-.466.004.008-.89.458Zm.116.223.88-.473.012.02.01.02-.902.433Zm.01.022-.883.468-.009-.017-.008-.018.9-.433Zm.18.34-.885.467-.001-.003.885-.464Zm.098.188-.881.472-.003-.006.884-.467Zm.117.22-.886.465-.004-.008.89-.456Zm.057.11-.88.476-.005-.012.885-.465Zm.135.255-.884.467-.002-.004.886-.464Zm.131.247-.884.467-.002-.004.886-.463Zm.095.18-.816.578-.038-.054-.03-.058.884-.466Zm.002.003.816-.578.039.054.03.058-.885.466Zm.249.468.882-.47.004.008-.886.462Zm.146.276-.881.473-.003-.005.884-.468Zm.06.113.881-.473.002.004-.883.469Zm.143.27-.881.473-.004-.007-.004-.008.89-.458Zm.458.857-.88.475-.003-.006.883-.469Zm.146.272-.879.478-.002-.004.88-.474Zm.034.063.878-.478.005.008-.883.47Zm.17.317.882-.471.005.01.006.01-.893.451Zm.016.03-.882.473-.006-.01-.005-.011.893-.451Zm.385.716.88-.476.003.008-.883.468Zm.022.042-.88.474-.004-.006.884-.468Zm.489.907-.879.478-.002-.005.88-.473Zm.086.157.878-.478-.878.478Zm.061.114.879-.478.006.011-.885.467Zm.172.319-.876.483-.005-.01.88-.473Zm.05.093.877-.483.005.01-.881.473Zm.047.086-.879.477-.002-.004.881-.473Zm.203.375-.86.511-.01-.017-.009-.017.88-.477Zm.01.017.86-.511.009.015.008.016-.877.48Zm.06.11.878-.48.002.004-.88.476Zm.18.334-.878.477-.003-.005.882-.473Zm.31.566.876-.482.001.003-.877.479Zm.182.334-.877.48-.003-.004.88-.476Zm1.17 2.132.876-.482.002.005-.879.477Zm.022.042-.875.483-.003-.005.878-.478Zm17.645 29.043.811-.584.023.031.02.033-.854.52Zm.007.011-.81.588-.023-.033-.021-.034.854-.52Zm.313.432-.782.624-.013-.017-.013-.017.808-.59Zm.002.003.781-.624.015.017.013.019-.809.588Zm1.54 2.047-.782.624-.006-.008.788-.616Zm.016.02.782-.624.006.008-.788.615Zm.132.169-.762.648-.015-.018-.014-.018.79-.612Zm.017.02.761-.648.014.017.014.017-.79.614Zm.139.178.779-.628.007.009.006.008-.792.61Zm.002.003-.78.624-.006-.007-.006-.007.792-.61Zm.126.157.781-.625-.781.625Zm.041.051.781-.624.001.001-.782.623Zm.117.147-.773.634-.005-.005-.004-.006.782-.623Zm.016.02.774-.634.003.005-.777.629Zm1.274 1.512.75-.662.002.003-.752.659Zm.033.038-.741.67-.006-.005-.006-.007.753-.658Zm.105.116.741-.671.006.006-.747.665Zm.028.031.747-.665v.001l-.747.664Zm.105.118-.735.678-.006-.006-.006-.007.747-.665Zm.033.036.735-.678.002.002-.737.676Zm.099.108.736-.677.003.003-.739.674Zm.039.042-.737.676-.003-.002.74-.674Zm.095.104-.727.687-.005-.006-.005-.006.737-.675Zm.034.036.727-.687-.727.687Zm.097.103-.72.694-.006-.007.726-.687Zm.036.037.72-.694.005.005.005.005-.73.684Zm.093.099-.72.694-.01-.01.73-.684Zm.04.04.72-.693v.001l-.72.693Zm.085.09-.712.702-.01-.01.722-.692Zm.045.046-.71.704-.002-.002.712-.702Zm.084.084-.708.707-.002-.003.71-.704Zm.042.043.708-.706.003.003-.71.703Zm.099.1-.706.708-.005-.005.71-.704Zm.023.023-.7.714-.005-.005.705-.71Zm.11.107-.695.72-.005-.006.7-.714Zm.016.016.695-.72.006.007-.7.713Zm.112.11-.694.72-.007-.007.701-.713Zm.013.012-.688.726-.007-.006.695-.72Zm.37.345-.591.806-.04-.03-.038-.033.67-.743Zm.009.006.591-.806.04.029.036.032-.668.745Zm.108.097-.66.752-.008-.007.668-.745Zm.03.027.66-.752.003.003-.662.75Zm.087.076-.635.773-.014-.011-.013-.012.662-.75Zm.037.03.635-.772.005.005.006.005-.646.762Zm.078.067-.642.767-.005-.004.647-.763Zm.04.034-.64.768-.002-.001.643-.767Zm.077.063-.626.78-.008-.006-.007-.006.64-.768Zm.039.032.625-.78.01.007-.635.773Zm.072.06-.608.793-.014-.01-.013-.011.636-.772Zm.045.034.608-.794.01.008-.618.785Zm.068.053-.613.79-.006-.004.619-.786Zm.043.034-.602.798-.01-.008.612-.79Zm.07.052-.594.805-.008-.006.602-.799Zm.041.03-.592.806h-.002l.594-.805Zm.067.05-.589.808-.003-.002.592-.806Zm.044.032.589-.808.004.003-.593.805Zm.067.05-.548.836-.023-.015-.022-.016.593-.806Zm.04.025.547-.837.016.01.015.012-.579.815Zm.065.047-.54.842-.02-.013-.019-.014.58-.815Zm.043.028.54-.842.008.005.007.005-.555.832Zm.06.04-.536.844-.01-.006-.008-.006.555-.832Zm.046.029.537-.844.009.006-.546.838Zm.066.043-.525.851-.01-.007-.01-.006.545-.838Zm.036.022.525-.851h.002l-.527.85Zm.203.119-.454.89-.02-.01-.019-.01.493-.87Zm.023.011.454-.89.017.008.017.01-.488.872Zm.077.043-.454.891-.017-.008-.017-.01.488-.873Zm.034.017-.433.902-.01-.005-.01-.005.453-.891Zm.064.031.433-.901.01.005.011.005-.454.891Zm.038.02-.43.902-.012-.005-.012-.006.454-.891Zm.059.028-.381.924-.025-.01-.025-.012.43-.902Zm.039.016.38-.925.013.005.012.005-.405.915Zm.057.025-.378.926-.014-.006-.013-.006.405-.914Zm.038.015-.376.927h-.002l.378-.927Zm.055.023-.344.939-.016-.006-.016-.006.376-.927Zm.04.014-.344.94.344-.94Zm.053.02-.342.94-.002-.001.344-.94Zm.039.014-.306.952-.018-.006-.018-.006.342-.94Zm.05.016-.304.953h-.002l.306-.953Zm.04.013-.271.962-.017-.004-.016-.005.304-.953Zm.05.014-.254.967-.009-.002-.008-.002.271-.963Zm.039.01-.224.975-.015-.004-.015-.004.254-.967Zm.047.011.224-.975-.224.975Zm.041.01-.189.981-.017-.003-.017-.004.223-.975Zm.048.009-.184.983-.005-.001.189-.982Zm.035.006-.133.991-.025-.003-.025-.005.183-.983Zm.051.007-.125.992h-.008l.133-.992Zm.035.004-.113.994-.012-.001.125-.993Zm.048.006-.065.998-.024-.002-.024-.002.113-.994Zm.034.002-.052.999-.012-.001.064-.998Zm.05.003-.022 1-.015-.001h-.015l.052-1Zm.031 0-.017 1h-.005l.022-1Zm.054.001.036 1h-.053l.017-1Zm.025 0 .073.997-.018.001h-.02l-.035-.999Zm.078-.007.11.994-.018.002-.018.002-.074-.998Zm.098-.01-.111-.994.015-.002.015-.001.08.997Zm.013-.002.152.989-.035.005-.036.003-.081-.997Zm.1-.015.222.975-.035.008-.034.005-.153-.988Zm.013-.003-.222-.975.02-.004.018-.004.184.983Zm.104-.02-.184-.982.012-.002.011-.002.16.987Zm.017-.002.21.977-.024.006-.026.004-.16-.987Zm.107-.023-.211-.978.01-.002.201.98Zm.016-.004.244.97-.02.005-.022.005-.202-.98Zm.115-.028-.244-.97.011-.003.011-.002.222.975Zm.013-.003.266.964-.022.006-.022.005-.222-.975Zm.123-.034-.266-.964.012-.004.012-.003.242.97Zm.005-.002.28.96-.019.006-.018.004-.243-.97Zm.131-.038-.279-.96.018-.005.019-.005.242.97Zm.005-.001.305.952-.03.01-.032.008-.243-.97Zm.129-.041.314.95-.01.002-.304-.952Zm.022-.008.317.949h-.003l-.314-.949Zm.127-.042.317.948-.318-.948Zm.024-.008.331.944-.013.004-.318-.948Zm.133-.047.359.934-.014.005-.014.005-.331-.944Zm.021-.008-.359-.933.01-.004.35.937Zm.136-.05.359.933-.01.004-.349-.937Zm.028-.011.362.932-.004.001-.358-.933Zm.142-.055-.362-.932.011-.005.012-.004.339.94Zm.01-.004.369.93-.015.006-.015.005-.338-.941Zm.324-.132-.387-.922.01-.004.01-.004.367.93Zm.013-.005.397.917-.015.007-.015.006-.367-.93Zm.16-.07-.397-.917.012-.005.011-.005.375.927Zm.022-.008.405.914-.015.007-.016.006-.374-.927Zm.157-.07-.405-.914.005-.003.4.917Zm.029-.013.412.912-.012.005-.4-.917Zm.162-.073.44.898-.014.007-.014.006-.412-.91Zm.026-.013-.44-.898.01-.005.01-.004.42.907Zm.163-.075-.42-.907.004-.003.416.91Zm.035-.016.43.903-.007.003-.008.003-.415-.91Zm.154-.074.436.9-.006.003-.43-.903Zm.033-.016-.436-.9h.002l.434.9Zm.163-.078.447.895-.007.003-.006.003-.434-.901Zm.028-.014-.446-.895.005-.002.441.897Zm.188-.093.461.888-.01.005-.01.005-.44-.898Zm.011-.005-.46-.888.01-.005.45.893Zm.19-.096.454.89-.003.003-.451-.893Zm.028-.014-.454-.891.001-.001.453.892Zm.192-.098.49.872-.018.01-.019.01-.453-.892Zm.011-.006-.49-.872.015-.008.014-.008.461.888Zm.204-.106-.461-.887.009-.005.009-.004.443.896Zm.02-.01.465.885-.01.006-.012.006-.443-.897Zm.42-.223.488.873-.008.005-.008.004-.471-.882Zm.013-.007-.486-.874.01-.006.476.88Zm.214-.116-.48-.877.012-.007.013-.006.455.89Zm.015-.007.483.875-.014.008-.014.007-.455-.89Zm.22-.122.482.877-.003.002-.478-.879Zm.01-.005.485.875-.004.002-.481-.877Zm.225-.124.505.863-.012.007-.011.006-.482-.876Zm.013-.007-.504-.864.008-.005.01-.005.486.874Zm.298-.168-.495-.869.002-.001.493.87Zm.095-.054.495.869h-.002l-.493-.87Zm.076-.043-.495-.87h.003l.492.87Zm.127-.072.504.864-.011.006-.493-.87Zm.079-.046-.504-.864.004-.002.5.866Zm.119-.069-.5-.866.003-.002.497.868Zm.102-.058.502.864-.006.004-.496-.868Zm.099-.058-.503-.864.004-.002.499.866Zm.103-.06.505.864-.005.003-.5-.866Zm.094-.054.506.862-.001.001-.505-.863Zm.13-.077.519.856-.006.003-.007.004-.506-.863Zm.043-.025-.518-.856.01-.006.508.862Zm30.674-22.204.454-.89 1.363.694-1.183.97-.634-.774Zm-.002 0-.453.89-1.363-.693 1.182-.97.634.773Zm3.31-2.759.938-.348.243.656-.532.454-.649-.762Zm4.595 26.151.976.218-.173.776-.795.006-.008-1Zm-26.188 2.898.785.621-.785-.62Zm49.757 42.772-.256.967.256-.967Zm25.027-45.153-.048.999-.883-.043-.066-.881.997-.075ZM116.331 42.09l.844-.538-.844.538Zm-65.93-24.675c-9.605 2.332-23.463 10.075-34.085 16.65l-1.052-1.7c10.59-6.557 24.706-14.475 34.665-16.893l.472 1.943Zm-34.085 16.65a343.44 343.44 0 0 0-14.604 9.556L.57 41.98a345.36 345.36 0 0 1 14.694-9.614l1.052 1.7Zm-14.6 9.554-.041.028-1.15-1.637.042-.029 1.148 1.638Zm-.043.03-.132.092-1.146-1.64.132-.092 1.146 1.64Zm-.135.094-.038.026-1.14-1.643.038-.027 1.14 1.644Zm-.039.027-.036.025L.325 42.15l.036-.025 1.138 1.645Zm-.032.022-.064.045L.255 42.2l.065-.046 1.147 1.639Zm-.063.044-.052.037-1.15-1.637.053-.037 1.149 1.637Zm-.045.031-.032.024-1.164-1.627.032-.023 1.164 1.626Zm-.046.033-.016.011L.16 42.267l.016-.011L1.313 43.9Zm0 0-.01.007-1.17-1.622.011-.008 1.17 1.623Zm-.05.034-.006.004-1.091-1.675.006-.005 1.092 1.676Zm.005-.002-.008.005-1.113-1.662.009-.006 1.112 1.663Zm-.565-.826.889-.46v.003l.004.006a7.783 7.783 0 0 0 .065.126l.206.394-1.771.928a169.292 169.292 0 0 1-.28-.535v-.002l.887-.46Zm1.164.067.062.12-1.77.932-.062-.12 1.77-.932Zm.067.128c.037.072.07.138.108.208l-1.762.946c-.047-.088-.09-.171-.124-.238l1.778-.916Zm.128.247.011.023-1.802.866-.011-.022 1.802-.867Zm-.006-.012.18.344-1.771.928-.177-.336 1.768-.936Zm.179.342.099.187-1.77.933-.098-.187 1.769-.933Zm.096.181.125.237-1.78.913-.108-.205 1.763-.945Zm.12.229.057.109-1.77.93-.058-.11 1.771-.93Zm.051.097c.049.09.097.182.142.268l-1.772.927c-.047-.09-.088-.169-.128-.242l1.758-.953Zm.14.264.134.252-1.773.926-.13-.243 1.77-.935Zm.132.248.094.18-1.768.933-.095-.179 1.769-.934Zm.026.069.002.003-1.632 1.156-.002-.003L2.8 44.967Zm.071.115.246.464-1.765.94-.25-.473 1.77-.93Zm.25.471.144.272-1.768.935c-.046-.087-.1-.187-.148-.28l1.772-.926Zm.141.267.06.112-1.762.946-.06-.113 1.762-.946Zm.063.116c.043.082.097.181.148.282l-1.778.915-.137-.259 1.766-.938Zm.14.267.46.86-1.766.938c-.158-.298-.31-.58-.456-.853l1.763-.945Zm.457.854.146.273-1.76.948-.146-.27 1.76-.95Zm.144.27.034.062-1.756.957-.034-.063 1.756-.957Zm.039.07.169.316-1.764.942-.17-.317 1.765-.94Zm.18.336.015.03-1.785.903-.016-.031 1.786-.902Zm.004.01.383.711-1.759.952-.387-.719 1.763-.944Zm.387.719.022.041-1.767.937-.022-.041 1.767-.937Zm.02.036.489.907-1.762.947-.489-.906 1.761-.948Zm.486.902.086.158-1.757.957-.086-.158 1.757-.957Zm.086.159.062.113-1.758.955-.061-.113 1.757-.955Zm.068.124c.054.103.104.195.168.313l-1.762.947c-.052-.097-.117-.216-.175-.327l1.769-.933Zm.163.303.05.093-1.75.965-.052-.092 1.752-.966Zm.056.103.046.086-1.762.946-.046-.087 1.762-.945Zm.044.081.203.377-1.758.953-.202-.375 1.757-.955Zm.184.342.01.017-1.72 1.021-.01-.016 1.72-1.022Zm.027.048.06.11-1.754.96-.06-.11 1.754-.96Zm.063.114.182.337-1.763.945-.178-.33 1.759-.952Zm.18.332.306.562-1.752.964-.312-.57 1.757-.956Zm.307.565.185.337-1.76.952-.18-.331 1.755-.959Zm.182.333c.375.685.765 1.396 1.169 2.13l-1.753.964-1.17-2.134 1.754-.96Zm1.171 2.134.023.043-1.757.955-.023-.042 1.757-.956Zm.02.037c4.915 8.915 11.88 21.026 17.58 28.942l-1.623 1.169c-5.778-8.024-12.794-20.23-17.708-29.145l1.751-.966Zm17.623 29.006.006.01-1.707 1.042-.007-.011 1.708-1.041Zm-.038-.056.311.429-1.615 1.18-.315-.434 1.619-1.175Zm.285.395.002.003-1.562 1.248-.003-.003 1.563-1.248Zm.03.039a74.2 74.2 0 0 0 1.52 2.02l-1.577 1.23a76.166 76.166 0 0 1-1.56-2.074l1.617-1.176Zm1.513 2.011.015.02-1.563 1.247-.015-.02 1.563-1.247Zm.022.028.134.173-1.581 1.224a47.068 47.068 0 0 0-.13-.167l1.577-1.23Zm.105.137.017.02-1.523 1.296-.017-.02 1.523-1.296Zm.045.054c.05.064.089.115.129.164l-1.558 1.255-.15-.19 1.579-1.229Zm.142.181.002.003-1.584 1.221-.002-.003 1.584-1.22Zm-.009-.01.126.156-1.562 1.25-.126-.158 1.562-1.249Zm.126.156.041.052-1.562 1.249-.041-.052 1.562-1.249Zm.042.053.117.147-1.564 1.246-.117-.147 1.564-1.246Zm.108.136.017.02-1.547 1.268-.016-.02 1.546-1.268Zm.02.025c.43.531.847 1.026 1.247 1.48l-1.5 1.322a48.396 48.396 0 0 1-1.3-1.544l1.553-1.258Zm1.25 1.482.032.038-1.505 1.317-.033-.038 1.505-1.317Zm.021.025.105.117-1.482 1.342-.105-.116 1.482-1.343Zm.11.123.029.03-1.493 1.332-.028-.032 1.493-1.33Zm.03.032.105.118-1.495 1.329-.105-.118 1.495-1.329Zm.092.105.033.035-1.47 1.356-.033-.036 1.47-1.356Zm.035.037.098.107-1.472 1.353-.099-.107 1.473-1.353Zm.101.11.039.043-1.479 1.347-.038-.043 1.478-1.347Zm.037.04.095.104-1.474 1.351-.095-.103 1.474-1.352Zm.084.092.035.037-1.453 1.375-.035-.037 1.453-1.375Zm.035.038.097.102-1.453 1.374-.097-.103 1.453-1.373Zm.09.095.036.037-1.44 1.389-.035-.038 1.439-1.388Zm.046.047.092.099-1.459 1.368-.092-.099 1.459-1.368Zm.083.089.04.04-1.44 1.389-.04-.041 1.44-1.388Zm.04.042.086.09-1.442 1.384-.086-.089 1.443-1.385Zm.077.08.045.046-1.424 1.404-.045-.046 1.424-1.404Zm.043.044.084.084-1.42 1.408-.084-.084 1.42-1.408Zm.082.082.042.043-1.416 1.412-.042-.043 1.416-1.412Zm.045.046.099.1-1.422 1.406-.099-.1 1.422-1.406Zm.093.094.024.023-1.411 1.418-.024-.024 1.411-1.417Zm.018.017.11.107-1.4 1.43-.11-.108 1.4-1.429Zm.104.102.017.016-1.39 1.44-.016-.017 1.389-1.439Zm.023.023.113.11-1.403 1.426-.112-.11 1.402-1.426Zm.106.104.012.012-1.389 1.439-.012-.012 1.389-1.44Zm.006.006c.125.119.24.227.351.326l-1.338 1.487c-.132-.119-.263-.243-.39-.362l1.377-1.451Zm.274.263.008.007-1.183 1.612-.009-.006 1.184-1.613Zm.084.068.108.097-1.335 1.49-.108-.097 1.335-1.49Zm.1.09.03.027-1.317 1.505-.031-.028 1.317-1.504Zm.034.03.086.076-1.324 1.499-.086-.076 1.324-1.5Zm.06.053.036.03-1.27 1.545-.037-.03 1.27-1.545Zm.047.04.079.066-1.294 1.526-.078-.067 1.293-1.525Zm.074.063.04.034-1.284 1.533-.04-.034 1.284-1.533Zm.04.032.075.064-1.281 1.535-.076-.063 1.281-1.536Zm.06.051.04.032-1.252 1.56-.04-.031 1.252-1.56Zm.049.04.073.06-1.27 1.544-.074-.06 1.27-1.545Zm.046.038.045.034-1.218 1.587-.044-.034 1.217-1.587Zm.055.042.068.054-1.238 1.57-.069-.053 1.239-1.57Zm.061.049.043.033-1.225 1.581-.043-.033 1.225-1.581Zm.032.025.07.053-1.203 1.597-.07-.053 1.204-1.597Zm.063.047.041.03-1.188 1.61-.041-.031 1.188-1.61Zm.04.03.067.049-1.185 1.61-.067-.049 1.185-1.61Zm.064.046.043.032-1.178 1.616-.044-.032 1.179-1.616Zm.047.035.067.049-1.186 1.61-.067-.049 1.186-1.61Zm.021.018.04.025-1.096 1.674-.039-.026 1.096-1.673Zm.071.047.066.047-1.158 1.63-.066-.047 1.158-1.63Zm.027.02.044.028-1.08 1.683-.044-.027 1.08-1.683Zm.058.038.06.04-1.109 1.664-.06-.04 1.11-1.664Zm.043.028.045.029-1.074 1.687-.045-.028 1.074-1.688Zm.054.035.066.043-1.092 1.676-.067-.044 1.093-1.675Zm.045.03.036.022-1.05 1.702-.036-.022 1.05-1.702Zm.038.023c.048.03.1.059.17.099l-.987 1.74c-.062-.036-.149-.084-.237-.14l1.054-1.7Zm.13.078.023.011-.908 1.782-.023-.011.908-1.782Zm.057.03.077.042-.976 1.746-.077-.043.976-1.746Zm.043.024.034.017-.908 1.783-.034-.018.908-1.782Zm.012.007.065.03-.865 1.804-.064-.03.864-1.804Zm.086.041.038.02-.908 1.782-.038-.02.908-1.782Zm.015.008.058.028-.86 1.805-.06-.028.862-1.805Zm.008.006.04.016-.762 1.85-.039-.017.761-1.85Zm.064.026.057.026-.81 1.828-.057-.025.81-1.829Zm.03.014.038.016-.756 1.851-.038-.015.756-1.852Zm.036.015.055.022-.752 1.854-.055-.023.752-1.853Zm.023.01.04.015-.688 1.877-.04-.014.688-1.878Zm.039.014.053.02-.687 1.878-.052-.02.686-1.878Zm.05.019.04.014-.683 1.88-.039-.014.683-1.88Zm.004.002.05.016-.61 1.904-.051-.016.611-1.904Zm.049.015.04.013-.608 1.906-.04-.013.608-1.906Zm.007.003.05.014-.542 1.925-.05-.014.542-1.925Zm.033.01.039.01-.508 1.934-.039-.01.508-1.934Zm.008.002.047.011-.446 1.95-.047-.011.446-1.95Zm.048.011.04.01-.446 1.95-.041-.01.447-1.95Zm.006.002.048.01-.378 1.964-.048-.01.378-1.964Zm.043.009.035.006-.367 1.966-.036-.006.368-1.966Zm-.015-.002.05.007-.266 1.982-.05-.007.266-1.982Zm.042.006.035.004-.25 1.985-.035-.005.25-1.984Zm.022.003.048.005-.225 1.987-.048-.005.225-1.987Zm0 0 .034.003-.128 1.996-.035-.002.13-1.996Zm.022.002.05.003-.104 1.997-.05-.002.104-1.998Zm.02.002h.03l-.043 2h-.03l.043-2Zm.027 0 .054.001-.035 2h-.054l.035-2Zm0 .002.024-.001.073 1.999h-.025l-.072-1.998Zm-.013.001.078-.006.148 1.995-.079.006-.147-1.995Zm.041-.002.098-.011.222 1.987-.098.011-.222-1.987Zm.128-.014.013-.001.162 1.993-.013.001-.162-1.993Zm-.059.007.1-.015.306 1.976-.1.016-.306-1.977Zm.031-.002.013-.003.444 1.95-.013.003-.444-1.95Zm.051-.01.104-.02.367 1.966-.103.02-.368-1.967Zm.127-.024.017-.003.321 1.974-.017.003-.32-1.974Zm-.034.006.108-.023.422 1.955-.107.023-.422-1.955Zm.117-.025.016-.003.404 1.959-.016.003-.404-1.959Zm-.026.007.115-.03.488 1.94-.115.03-.488-1.94Zm.137-.035.013-.002.444 1.95-.013.003-.444-1.95Zm-.031.009.123-.034.533 1.927-.124.035-.532-1.928Zm.147-.04.005-.002.485 1.94-.005.002-.485-1.94Zm-.032.008.131-.038.558 1.92-.13.039-.559-1.921Zm.168-.048.005-.001.485 1.94-.005.001-.485-1.94Zm-.058.017.129-.042.61 1.905-.129.041-.61-1.904Zm.12-.039.022-.007.628 1.899-.022.007-.628-1.899Zm.02-.006.125-.042.634 1.897-.126.042-.634-1.897Zm.125-.042.024-.008.636 1.896-.025.008-.635-1.896Zm.011-.004.133-.046.662 1.887-.133.047-.662-1.888Zm.105-.036.021-.008.718 1.867-.021.008-.718-1.867Zm.031-.012.136-.05.698 1.874-.136.05L34 90.541Zm.126-.047.028-.01.717 1.867-.027.01-.718-1.867Zm.025-.01.142-.054.724 1.864-.142.055-.724-1.864Zm.165-.063.011-.004.677 1.882-.01.004-.678-1.882Zm-.019.007c.099-.039.2-.08.305-.124l.774 1.844c-.116.049-.23.096-.342.14l-.736-1.86Zm.325-.132.012-.005.735 1.86-.013.005-.734-1.86Zm-.018.008.161-.07.796 1.835-.162.07-.795-1.835Zm.184-.08.021-.008.75 1.854-.021.008-.75-1.854Zm-.01.004.158-.07.81 1.829-.157.07-.81-1.829Zm.163-.072.028-.012.8 1.833-.027.012-.8-1.833Zm.016-.007.162-.073.825 1.822-.162.074-.825-1.823Zm.134-.06.026-.013.882 1.796-.027.013-.881-1.796Zm.047-.022.162-.075.84 1.814-.161.075-.841-1.814Zm.167-.078.036-.016.83 1.82-.035.015-.83-1.819Zm.021-.01.154-.073.86 1.806-.154.073-.86-1.805Zm.149-.07.032-.016.872 1.8-.033.016-.871-1.8Zm.034-.017.164-.078.867 1.802-.164.079-.867-1.803Zm.15-.072.029-.014.893 1.79-.029.014-.892-1.79Zm.034-.016.188-.093.883 1.795-.188.092-.883-1.794Zm.169-.083.01-.006.922 1.775-.01.006-.922-1.775Zm.02-.011.19-.096.901 1.786-.189.095-.901-1.785Zm.187-.094.028-.014.908 1.782-.028.014-.908-1.782Zm.03-.015.192-.098.905 1.784-.192.097-.906-1.783Zm.154-.078.011-.006.98 1.744-.01.006-.98-1.744Zm.04-.022.204-.105.921 1.775-.203.105-.922-1.775Zm.222-.114.02-.01.886 1.793-.02.01-.886-1.793Zm-.002 0c.135-.07.273-.143.415-.22l.942 1.765c-.142.076-.285.152-.427.226l-.93-1.77Zm.4-.21.012-.008.973 1.747-.012.007-.974-1.747Zm.023-.014.209-.113.96 1.754-.218.118-.951-1.759Zm.234-.126.015-.008.91 1.781-.015.008-.91-1.781Zm-.013.007.226-.124.956 1.757-.216.118-.966-1.751Zm.223-.122.009-.005.962 1.753-.009.005-.962-1.753Zm.005-.003.23-.127.962 1.753-.222.123-.97-1.749Zm.206-.114.013-.007 1.008 1.727-.013.007-1.008-1.727Zm.03-.017a32.7 32.7 0 0 0 .29-.163l.99 1.738-.307.172-.972-1.747Zm.291-.164.096-.054.986 1.74-.095.054-.986-1.74Zm.094-.053.076-.043.99 1.738-.076.043-.99-1.738Zm.079-.045.127-.072.984 1.741-.127.072-.984-1.74Zm.116-.066.078-.045 1.007 1.728-.079.046-1.006-1.729Zm.082-.047.119-.069 1 1.732-.12.07-1-1.733Zm.122-.07.102-.059.993 1.736-.102.058-.993-1.736Zm.096-.056.1-.057 1.005 1.729-.1.057-1.005-1.729Zm.103-.06.103-.059.999 1.733-.104.06-.998-1.733Zm.098-.056.094-.055 1.009 1.727-.094.055-1.009-1.727Zm.092-.054.13-.076 1.012 1.725-.13.076-1.012-1.725Zm.118-.069.043-.026 1.036 1.71-.042.027-1.037-1.71Zm.054-.032c7.932-4.67 20.809-14.127 30.547-22.115l1.268 1.547c-9.773 8.016-22.74 17.547-30.8 22.291l-1.015-1.723Zm30.727-20.45-.001-.001.907-1.782h.002l-.908 1.782ZM69.51 65.9c1.146-.94 2.256-1.861 3.296-2.747l1.296 1.523a240.81 240.81 0 0 1-3.323 2.77L69.51 65.9Zm3.007-1.637.003.009.02.049c.517.51 1.797.06 1.88-.664a1.911 1.911 0 0 0-.015-.05c-.003-.01-.006-.018-.003-.012l.01.029.048.141.195.573a126.364 126.364 0 0 1 2.718 9.313c.696 2.796 1.342 5.871 1.7 8.77.356 2.88.44 5.672-.048 7.862l-1.952-.435c.412-1.852.363-4.37.016-7.181-.345-2.79-.972-5.78-1.657-8.533a124.465 124.465 0 0 0-2.863-9.719l-.047-.137a3.608 3.608 0 0 0-.012-.034l-.002-.007a.456.456 0 0 1-.02-.068c.082-.724 1.362-1.174 1.879-.663a1.917 1.917 0 0 1 .025.06l-1.875.697Zm5.532 25.802.007 1h-.066a85.254 85.254 0 0 0-.963.013 265.737 265.737 0 0 0-11.205.417c-3.129.192-6.298.467-8.808.859-1.258.196-2.32.417-3.117.662a5.902 5.902 0 0 0-.932.358c-.11.057-.19.107-.246.147-.056.042-.075.064-.073.063l-1.569-1.241c.262-.331.626-.57.977-.75a7.842 7.842 0 0 1 1.256-.49c.929-.284 2.097-.523 3.395-.726 2.602-.406 5.845-.686 8.995-.879a268.406 268.406 0 0 1 12.27-.432h.07l.009 1Zm-25.404 3.52a.673.673 0 0 0 .138-.304.401.401 0 0 0 .004-.127c0-.004.003.017.021.065.019.048.047.112.09.193.178.341.523.834 1.054 1.479 1.051 1.276 2.696 2.986 4.778 4.996 4.155 4.012 9.96 9.135 15.997 14.223 6.036 5.087 12.29 10.128 17.338 13.975 2.525 1.925 4.74 3.544 6.472 4.72a38.388 38.388 0 0 0 2.187 1.399c.613.355.984.52 1.151.565l-.513 1.933c-.451-.12-1.025-.411-1.641-.768a40.393 40.393 0 0 1-2.308-1.474c-1.774-1.205-4.021-2.849-6.56-4.784-5.08-3.871-11.36-8.933-17.415-14.036-6.052-5.102-11.896-10.257-16.097-14.314-2.097-2.025-3.808-3.797-4.933-5.164-.557-.677-1.006-1.296-1.282-1.821a2.94 2.94 0 0 1-.31-.852c-.051-.298-.052-.75.262-1.146l1.567 1.242Zm49.23 41.184c-.03-.009.14.027.653-.187.466-.193 1.066-.529 1.796-1.012 1.456-.962 3.306-2.43 5.424-4.264 4.23-3.662 9.435-8.705 14.534-13.875a531.521 531.521 0 0 0 13.834-14.577 233.5 233.5 0 0 0 4.592-5.164 54.559 54.559 0 0 0 1.345-1.619c.162-.205.286-.37.374-.495.1-.142.119-.184.109-.16l1.822.823a3.16 3.16 0 0 1-.297.49c-.117.165-.265.36-.438.58-.347.441-.819 1.01-1.395 1.682a237.775 237.775 0 0 1-4.634 5.21 535.523 535.523 0 0 1-13.888 14.634c-5.112 5.184-10.36 10.269-14.649 13.983-2.141 1.854-4.066 3.387-5.63 4.421-.779.515-1.499.927-2.13 1.19-.584.243-1.288.444-1.935.273l.513-1.933Zm42.661-41.354a.595.595 0 0 0 .038.55c.042.064.045.03-.122-.062-.319-.177-.899-.377-1.739-.579-1.649-.396-3.978-.725-6.386-.986a170.33 170.33 0 0 0-6.666-.574 193.588 193.588 0 0 0-3.009-.18l-.041-.003H126.598l.048-1 .048-.998h.015l.044.003.167.008.633.035c.543.03 1.318.077 2.244.14 1.851.125 4.314.316 6.747.58 2.423.264 4.858.603 6.637 1.03.875.21 1.674.46 2.242.775.276.153.599.376.818.705.26.392.338.893.118 1.38l-1.822-.824Zm-17.891-2.833-.997.075v-.001l-.001-.005-.001-.02a2.905 2.905 0 0 0-.006-.077l-.025-.306a274.782 274.782 0 0 0-.515-5.476c-.376-3.61-.956-8.546-1.77-13.847-.815-5.304-1.863-10.96-3.172-16.016-1.315-5.08-2.872-9.462-4.671-12.281l1.687-1.075c1.975 3.096 3.594 7.733 4.92 12.855 1.333 5.145 2.392 10.873 3.212 16.213a293.416 293.416 0 0 1 1.783 13.944 271.756 271.756 0 0 1 .52 5.52l.025.313.006.08.002.021v.007l-.997.076Zm-11.158-47.954c-3.63-5.692-13.179-13.854-25.274-19.67-12.076-5.807-26.476-9.172-39.786-5.55l-.525-1.93c13.952-3.796 28.87-.241 41.178 5.678 12.29 5.91 22.193 14.282 26.094 20.396l-1.687 1.076Z" mask="url(#a)"/><path fill="#00D1FF" stroke="#0093B9" d="M51.477 18.024c-.302-.511-.546-.92-.724-1.218 13.342-3.468 27.68-.067 39.678 5.703 12.143 5.84 21.78 14.053 25.479 19.851 1.842 2.889 3.415 7.335 4.733 12.425 1.315 5.078 2.365 10.752 3.182 16.065a293.121 293.121 0 0 1 2.314 19.666l.006.078.002.02v.006l.499-.037-75.17-72.559Zm0 0 .004.006.01.018.222.376.068.117.001.002.09.155.003.004.026.045.003.004.05.085a1106331582.73 1106331582.73 0 0 1 .13.224l.001.002.055.093v.001l.048.082.111.19.012.02.003.005.216.372.17.293.002.004.054.094.001.001c3.695 6.384 11.072 19.608 17.059 33.341 2.993 6.867 5.644 13.873 7.313 20.222 1.665 6.334 2.37 12.08 1.409 16.395l-.087.388-.397.003-26.577-72.542Z"/><path fill="#fff" fill-opacity=".36" d="M99.05 49.721c-.106.476-.014.97.077 1.448.759 3.96 1.549 7.915 2.324 11.87 1.896 9.706 3.793 19.425 4.879 29.255.076.687.157 1.479.269 2.313.357 2.675.931 6.062 3.281 7.759 2.424 1.748 5.626.408 7.303-1.752 1.429-1.838 2.013-4.186 2.38-6.484 1.361-8.526.646-18.037-1.757-26.326-1.222-4.215-3.055-8.28-5.584-11.876-2.221-3.156-5.966-8.097-10.252-8.03-1.24.019-2.652.613-2.92 1.823ZM102.1 121.858c.19 1.808 1.304 3.742 3.105 3.99 1.143.156 2.267-.41 3.187-1.108 2.836-2.155 7.019-10.532 5.51-14.104-.322-.763-.966-1.415-1.771-1.615-1.159-.286-2.326.382-3.279 1.102-3.535 2.669-7.249 6.992-6.752 11.735Z"/></svg>